# vertices:
v -43.400002 0.000000 33.200001
v -22.300001 0.000000 33.200001
v -1.200001 0.000000 33.200001
v 19.900000 0.000000 33.200001
v 41.000000 0.000000 33.200001
v -43.400002 0.000000 18.900002
v -22.300001 0.000000 18.900002
v -1.200001 0.000000 18.900002
v 19.900000 0.000000 18.900002
v 41.000000 0.000000 18.900002
v -43.400002 0.000000 4.600000
v -22.300001 0.000000 4.600000
v -1.200001 0.000000 4.600000
v 19.900000 0.000000 4.600000
v 41.000000 0.000000 4.600000
v -43.400002 0.000000 -9.700000
v -22.300001 0.000000 -9.700000
v -1.200001 0.000000 -9.700000
v 19.900000 0.000000 -9.700000
v 41.000000 0.000000 -9.700000
v -43.400002 0.000000 -24.000000
v -22.300001 0.000000 -24.000000
v -1.200001 0.000000 -24.000000
v 19.900000 0.000000 -24.000000
v 41.000000 0.000000 -24.000000

# texture coords:
vt 0.000000 1.000000 0.0
vt 0.250000 1.000000 0.0
vt 0.250000 0.750000 0.0
vt 0.000000 1.000000 0.0
vt 0.250000 0.750000 0.0
vt 0.000000 0.750000 0.0
vt 0.250000 1.000000 0.0
vt 0.500000 1.000000 0.0
vt 0.500000 0.750000 0.0
vt 0.250000 1.000000 0.0
vt 0.500000 0.750000 0.0
vt 0.250000 0.750000 0.0
vt 0.500000 1.000000 0.0
vt 0.750000 1.000000 0.0
vt 0.750000 0.750000 0.0
vt 0.500000 1.000000 0.0
vt 0.750000 0.750000 0.0
vt 0.500000 0.750000 0.0
vt 0.750000 1.000000 0.0
vt 1.000000 1.000000 0.0
vt 1.000000 0.750000 0.0
vt 0.750000 1.000000 0.0
vt 1.000000 0.750000 0.0
vt 0.750000 0.750000 0.0
vt 0.000000 0.750000 0.0
vt 0.250000 0.750000 0.0
vt 0.250000 0.500000 0.0
vt 0.000000 0.750000 0.0
vt 0.250000 0.500000 0.0
vt 0.000000 0.500000 0.0
vt 0.250000 0.750000 0.0
vt 0.500000 0.750000 0.0
vt 0.500000 0.500000 0.0
vt 0.250000 0.750000 0.0
vt 0.500000 0.500000 0.0
vt 0.250000 0.500000 0.0
vt 0.500000 0.750000 0.0
vt 0.750000 0.750000 0.0
vt 0.750000 0.500000 0.0
vt 0.500000 0.750000 0.0
vt 0.750000 0.500000 0.0
vt 0.500000 0.500000 0.0
vt 0.750000 0.750000 0.0
vt 1.000000 0.750000 0.0
vt 1.000000 0.500000 0.0
vt 0.750000 0.750000 0.0
vt 1.000000 0.500000 0.0
vt 0.750000 0.500000 0.0
vt 0.000000 0.500000 0.0
vt 0.250000 0.500000 0.0
vt 0.250000 0.250000 0.0
vt 0.000000 0.500000 0.0
vt 0.250000 0.250000 0.0
vt 0.000000 0.250000 0.0
vt 0.250000 0.500000 0.0
vt 0.500000 0.500000 0.0
vt 0.500000 0.250000 0.0
vt 0.250000 0.500000 0.0
vt 0.500000 0.250000 0.0
vt 0.250000 0.250000 0.0
vt 0.500000 0.500000 0.0
vt 0.750000 0.500000 0.0
vt 0.750000 0.250000 0.0
vt 0.500000 0.500000 0.0
vt 0.750000 0.250000 0.0
vt 0.500000 0.250000 0.0
vt 0.750000 0.500000 0.0
vt 1.000000 0.500000 0.0
vt 1.000000 0.250000 0.0
vt 0.750000 0.500000 0.0
vt 1.000000 0.250000 0.0
vt 0.750000 0.250000 0.0
vt 0.000000 0.250000 0.0
vt 0.250000 0.250000 0.0
vt 0.250000 0.000000 0.0
vt 0.000000 0.250000 0.0
vt 0.250000 0.000000 0.0
vt 0.000000 0.000000 0.0
vt 0.250000 0.250000 0.0
vt 0.500000 0.250000 0.0
vt 0.500000 0.000000 0.0
vt 0.250000 0.250000 0.0
vt 0.500000 0.000000 0.0
vt 0.250000 0.000000 0.0
vt 0.500000 0.250000 0.0
vt 0.750000 0.250000 0.0
vt 0.750000 0.000000 0.0
vt 0.500000 0.250000 0.0
vt 0.750000 0.000000 0.0
vt 0.500000 0.000000 0.0
vt 0.750000 0.250000 0.0
vt 1.000000 0.250000 0.0
vt 1.000000 0.000000 0.0
vt 0.750000 0.250000 0.0
vt 1.000000 0.000000 0.0
vt 0.750000 0.000000 0.0

# normals:
vn 0.000000 1.000000 0.000000
vn 0.000000 1.000000 0.000000
vn 0.000000 1.000000 0.000000
vn 0.000000 1.000000 0.000000
vn 0.000000 1.000000 0.000000
vn 0.000000 1.000000 0.000000
vn 0.000000 1.000000 0.000000
vn 0.000000 1.000000 0.000000
vn 0.000000 1.000000 0.000000
vn 0.000000 1.000000 0.000000
vn 0.000000 1.000000 0.000000
vn 0.000000 1.000000 0.000000
vn 0.000000 1.000000 0.000000
vn 0.000000 1.000000 0.000000
vn 0.000000 1.000000 0.000000
vn 0.000000 1.000000 0.000000
vn 0.000000 1.000000 0.000000
vn 0.000000 1.000000 0.000000
vn 0.000000 1.000000 0.000000
vn 0.000000 1.000000 0.000000
vn 0.000000 1.000000 0.000000
vn 0.000000 1.000000 0.000000
vn 0.000000 1.000000 0.000000
vn 0.000000 1.000000 0.000000
vn 0.000000 1.000000 0.000000
vn 0.000000 1.000000 0.000000
vn 0.000000 1.000000 0.000000
vn 0.000000 1.000000 0.000000
vn 0.000000 1.000000 0.000000
vn 0.000000 1.000000 0.000000
vn 0.000000 1.000000 0.000000
vn 0.000000 1.000000 0.000000
vn 0.000000 1.000000 0.000000
vn 0.000000 1.000000 0.000000
vn 0.000000 1.000000 0.000000
vn 0.000000 1.000000 0.000000
vn 0.000000 1.000000 0.000000
vn 0.000000 1.000000 0.000000
vn 0.000000 1.000000 0.000000
vn 0.000000 1.000000 0.000000
vn 0.000000 1.000000 0.000000
vn 0.000000 1.000000 0.000000
vn 0.000000 1.000000 0.000000
vn 0.000000 1.000000 0.000000
vn 0.000000 1.000000 0.000000
vn 0.000000 1.000000 0.000000
vn 0.000000 1.000000 0.000000
vn 0.000000 1.000000 0.000000
vn 0.000000 1.000000 0.000000
vn 0.000000 1.000000 0.000000
vn 0.000000 1.000000 0.000000
vn 0.000000 1.000000 0.000000
vn 0.000000 1.000000 0.000000
vn 0.000000 1.000000 0.000000
vn 0.000000 1.000000 0.000000
vn 0.000000 1.000000 0.000000
vn 0.000000 1.000000 0.000000
vn 0.000000 1.000000 0.000000
vn 0.000000 1.000000 0.000000
vn 0.000000 1.000000 0.000000
vn 0.000000 1.000000 0.000000
vn 0.000000 1.000000 0.000000
vn 0.000000 1.000000 0.000000
vn 0.000000 1.000000 0.000000
vn 0.000000 1.000000 0.000000
vn 0.000000 1.000000 0.000000
vn 0.000000 1.000000 0.000000
vn 0.000000 1.000000 0.000000
vn 0.000000 1.000000 0.000000
vn 0.000000 1.000000 0.000000
vn 0.000000 1.000000 0.000000
vn 0.000000 1.000000 0.000000
vn 0.000000 1.000000 0.000000
vn 0.000000 1.000000 0.000000
vn 0.000000 1.000000 0.000000
vn 0.000000 1.000000 0.000000
vn 0.000000 1.000000 0.000000
vn 0.000000 1.000000 0.000000
vn 0.000000 1.000000 0.000000
vn 0.000000 1.000000 0.000000
vn 0.000000 1.000000 0.000000
vn 0.000000 1.000000 0.000000
vn 0.000000 1.000000 0.000000
vn 0.000000 1.000000 0.000000
vn 0.000000 1.000000 0.000000
vn 0.000000 1.000000 0.000000
vn 0.000000 1.000000 0.000000
vn 0.000000 1.000000 0.000000
vn 0.000000 1.000000 0.000000
vn 0.000000 1.000000 0.000000
vn 0.000000 1.000000 0.000000
vn 0.000000 1.000000 0.000000
vn 0.000000 1.000000 0.000000
vn 0.000000 1.000000 0.000000
vn 0.000000 1.000000 0.000000
vn 0.000000 1.000000 0.000000

# triangles:
g kHED_model
usemtl "Plane 1"
s 0
f 1/1/1 2/2/2 7/3/3
f 1/4/4 7/5/5 6/6/6
f 2/7/7 3/8/8 8/9/9
f 2/10/10 8/11/11 7/12/12
f 3/13/13 4/14/14 9/15/15
f 3/16/16 9/17/17 8/18/18
f 4/19/19 5/20/20 10/21/21
f 4/22/22 10/23/23 9/24/24
f 6/25/25 7/26/26 12/27/27
f 6/28/28 12/29/29 11/30/30
f 7/31/31 8/32/32 13/33/33
f 7/34/34 13/35/35 12/36/36
f 8/37/37 9/38/38 14/39/39
f 8/40/40 14/41/41 13/42/42
f 9/43/43 10/44/44 15/45/45
f 9/46/46 15/47/47 14/48/48
f 11/49/49 12/50/50 17/51/51
f 11/52/52 17/53/53 16/54/54
f 12/55/55 13/56/56 18/57/57
f 12/58/58 18/59/59 17/60/60
f 13/61/61 14/62/62 19/63/63
f 13/64/64 19/65/65 18/66/66
f 14/67/67 15/68/68 20/69/69
f 14/70/70 20/71/71 19/72/72
f 16/73/73 17/74/74 22/75/75
f 16/76/76 22/77/77 21/78/78
f 17/79/79 18/80/80 23/81/81
f 17/82/82 23/83/83 22/84/84
f 18/85/85 19/86/86 24/87/87
f 18/88/88 24/89/89 23/90/90
f 19/91/91 20/92/92 25/93/93
f 19/94/94 25/95/95 24/96/96

g